<?xml version="1.0" standalone="no"?>
<!DOCTYPE svg PUBLIC "-//W3C//DTD SVG 20010904//EN"
 "http://www.w3.org/TR/2001/REC-SVG-20010904/DTD/svg10.dtd">
<svg version="1.0" xmlns="http://www.w3.org/2000/svg"
 width="192.000000pt" height="192.000000pt" viewBox="0 0 192.000000 192.000000"
 preserveAspectRatio="xMidYMid meet">
<metadata>
Created by potrace 1.15, written by Peter Selinger 2001-2017
</metadata>
<g transform="translate(0.000000,192.000000) scale(0.100000,-0.100000)"
fill="#000000" stroke="none">
<path d="M805 1540 c9 -30 32 -103 51 -163 l36 -107 -56 -84 c-52 -78 -106
-136 -126 -136 -5 0 -22 12 -39 26 -38 32 -87 118 -141 249 -48 116 -54 125
-45 70 29 -171 89 -399 136 -516 l30 -76 -24 -64 c-46 -123 -135 -474 -123
-486 2 -3 18 21 35 53 80 157 99 189 134 230 21 24 47 44 56 44 24 0 95 -77
150 -163 l44 -68 -23 -75 c-13 -40 -21 -76 -19 -79 3 -2 18 18 34 45 16 28 32
50 35 50 3 0 14 -14 24 -31 25 -43 31 -29 12 28 l-16 48 56 82 c51 76 98 123
122 123 14 0 61 -49 89 -93 13 -21 47 -84 75 -139 29 -56 53 -97 56 -90 10 32
-82 388 -134 515 -20 51 -22 62 -10 69 8 5 38 40 66 79 50 68 53 71 86 66 44
-7 75 -31 114 -88 86 -127 164 -149 210 -60 25 51 25 51 -5 51 -45 0 -84 29
-135 99 -58 80 -86 101 -134 101 l-35 0 53 113 c55 115 92 215 83 223 -3 3
-38 -35 -80 -83 -143 -168 -246 -249 -299 -235 -29 7 -88 70 -136 145 l-41 62
43 120 c24 66 47 136 51 155 l6 35 -18 -30 c-11 -16 -41 -69 -68 -118 -27 -48
-52 -84 -56 -80 -5 5 -33 55 -65 113 -69 128 -79 140 -59 70z m178 -492 c26
-62 67 -144 91 -182 l44 -69 -44 -85 c-24 -46 -60 -128 -80 -181 -21 -53 -41
-100 -44 -104 -4 -5 -29 47 -55 115 -26 68 -65 157 -86 200 l-38 76 69 144
c38 79 72 156 75 171 4 15 10 27 14 27 3 0 28 -51 54 -112z m242 -43 c14 -13
25 -33 25 -45 0 -33 -44 -70 -84 -70 -26 0 -40 7 -56 27 -56 71 51 153 115 88z
m-451 -6 c17 -13 26 -30 26 -49 0 -33 -40 -70 -74 -70 -22 0 -64 24 -78 44
-14 21 -8 55 14 76 28 26 78 26 112 -1z"/>
</g>
</svg>
